<?xml version="1.0" encoding="UTF-8"?>
<svg id="Layer_2" data-name="Layer 2" xmlns="http://www.w3.org/2000/svg" viewBox="0 0 495.67 497">
  <defs>
    <style>
      .cls-1 {
        fill: #fff;
      }
    </style>
  </defs>
  <path class="cls-1" d="m267.06,82.52c-.51.25-1.52,6.08-3.04,16.97-4.18,32.03-7.47,49.38-12.41,63.94-7.6,22.66-18.87,36.21-37.86,45.58-15.32,7.6-36.08,12.28-76.85,17.6-16.33,2.28-17.47,2.53-17.47,4.81s1.14,2.66,12.79,4.05c61.03,7.72,84.07,14.94,100.78,31.65,16.33,16.33,23.55,38.74,31.02,96.1,2.15,16.33,2.41,17.47,4.68,17.47s2.66-1.14,4.43-15.32c7.6-59.25,14.81-81.79,31.4-98.25,16.71-16.71,39.76-23.93,100.78-31.65,11.65-1.52,12.79-1.9,12.79-4.05,0-2.28-1.14-2.53-17.47-4.68-31.65-4.05-48.62-7.47-62.8-12.03-23.42-7.6-37.1-18.74-46.47-37.6-7.98-16.08-12.53-36.08-18.23-79.64-1.27-9.5-2.15-14.43-2.66-14.81-1.01-.76-2.28-.76-3.42-.13Z"/>
  <path class="cls-1" d="m157.3,54.12c-.19.09-.56,2.23-1.11,6.22-1.53,11.74-2.74,18.09-4.55,23.43-2.78,8.3-6.91,13.27-13.87,16.7-5.61,2.78-13.22,4.5-28.16,6.45-5.98.84-6.4.93-6.4,1.76s.42.97,4.69,1.48c22.36,2.83,30.8,5.47,36.93,11.6,5.98,5.98,8.63,14.2,11.37,35.21.79,5.98.88,6.4,1.72,6.4s.97-.42,1.62-5.61c2.78-21.71,5.43-29.97,11.5-36,6.12-6.12,14.57-8.77,36.93-11.6,4.27-.56,4.69-.7,4.69-1.48,0-.84-.42-.93-6.4-1.72-11.6-1.48-17.81-2.74-23.01-4.41-8.58-2.78-13.59-6.87-17.03-13.78-2.92-5.89-4.59-13.22-6.68-29.18-.46-3.48-.79-5.29-.97-5.43-.37-.28-.84-.28-1.25-.05Z"/>
  <path class="cls-1" d="m135.28,273.42c-.27.13-.8,3.21-1.61,8.97-2.21,16.94-3.95,26.11-6.56,33.8-4.02,11.98-9.97,19.14-20.01,24.1-8.1,4.02-19.08,6.49-40.63,9.3-8.64,1.2-9.24,1.34-9.24,2.54s.6,1.41,6.76,2.14c32.26,4.08,44.45,7.9,53.28,16.73,8.64,8.64,12.45,20.48,16.4,50.81,1.14,8.64,1.27,9.24,2.48,9.24s1.41-.6,2.34-8.1c4.02-31.33,7.83-43.24,16.6-51.94,8.84-8.84,21.02-12.65,53.28-16.73,6.16-.8,6.76-1,6.76-2.14,0-1.2-.6-1.34-9.24-2.48-16.73-2.14-25.7-3.95-33.2-6.36-12.38-4.02-19.61-9.91-24.57-19.88-4.22-8.5-6.63-19.08-9.64-42.1-.67-5.02-1.14-7.63-1.41-7.83-.54-.4-1.2-.4-1.81-.07Z"/>
  <path class="cls-1" d="m391.81,351.02c-.16.08-.47,1.88-.94,5.24-1.29,9.89-2.31,15.24-3.83,19.74-2.34,7-5.82,11.18-11.68,14.07-4.73,2.34-11.14,3.79-23.72,5.43-5.04.7-5.39.78-5.39,1.49s.35.82,3.95,1.25c18.84,2.38,25.95,4.61,31.11,9.77,5.04,5.04,7.27,11.96,9.57,29.66.66,5.04.74,5.39,1.45,5.39s.82-.35,1.37-4.73c2.34-18.29,4.57-25.25,9.69-30.33,5.16-5.16,12.27-7.39,31.11-9.77,3.6-.47,3.95-.59,3.95-1.25,0-.7-.35-.78-5.39-1.45-9.77-1.25-15.01-2.31-19.38-3.71-7.23-2.34-11.45-5.78-14.34-11.61-2.46-4.96-3.87-11.14-5.63-24.58-.39-2.93-.66-4.46-.82-4.57-.31-.23-.7-.23-1.06-.04Z"/>
</svg>