<svg width="123" height="123" viewBox="0 0 123 123" fill="none" xmlns="http://www.w3.org/2000/svg">
<path d="M61.0183 122.037C94.7178 122.037 122.037 94.7178 122.037 61.0183C122.037 27.3188 94.7178 0 61.0183 0C27.3188 0 0 27.3188 0 61.0183C0 94.7178 27.3188 122.037 61.0183 122.037Z" fill="white"/>
<path fill-rule="evenodd" clip-rule="evenodd" d="M77.3801 67.79C74.6349 67.79 72.036 66.6187 69.6934 64.7153L70.279 62.0432L70.3156 61.9334C70.8281 59.0783 72.4021 54.2832 77.3801 54.2832C81.1137 54.2832 84.1152 57.3213 84.1152 61.0549C84.1152 64.7519 81.1137 67.79 77.3801 67.79ZM77.3801 47.4749C71.0477 47.4749 66.1428 51.5746 64.1296 58.3828C61.0915 53.8074 58.7489 48.2802 57.4312 43.6682H50.5863V61.4209C50.5863 64.9349 47.7312 67.7534 44.2172 67.79C40.7399 67.7534 37.8848 64.9349 37.8848 61.4209V43.6682H31.0399V61.4209C31.0399 68.7051 36.9697 74.6349 44.2172 74.6349C51.5014 74.6349 57.4312 68.7051 57.4312 61.4209V58.456C58.7489 61.2013 60.3594 64.0198 62.336 66.4722L58.1632 86.1284H65.1545L68.1926 71.8896C70.8281 73.5734 73.9028 74.6349 77.3801 74.6349C84.8839 74.6349 90.9601 68.5221 90.9601 61.0549C90.9601 53.5512 84.8839 47.4749 77.3801 47.4749Z" fill="black"/>
</svg>
