<svg width="25" height="24" viewBox="0 0 25 24" fill="none" xmlns="http://www.w3.org/2000/svg">
<path d="M11.2837 3.48622L11.2835 3.48644L2.59731 12.1726C2.55043 12.2169 2.48824 12.2413 2.42373 12.2408C2.35818 12.2402 2.29546 12.214 2.24909 12.1676C2.20271 12.1213 2.17639 12.0586 2.17579 11.9931C2.1752 11.9286 2.19953 11.8665 2.24362 11.8195L10.9296 3.13354L10.5761 2.77999L10.9296 3.13354C11.0921 2.97104 11.2851 2.84213 11.4974 2.75418C11.7097 2.66624 11.9373 2.62097 12.1671 2.62097C12.3969 2.62097 12.6245 2.66624 12.8368 2.75418C13.0491 2.84213 13.242 2.97103 13.4045 3.13352C13.4045 3.13353 13.4045 3.13354 13.4045 3.13354L22.0935 11.8235L22.0997 11.8298L22.1062 11.8358C22.1308 11.8587 22.1505 11.8863 22.1641 11.917C22.1778 11.9476 22.1851 11.9807 22.1857 12.0143C22.1863 12.0479 22.1802 12.0812 22.1676 12.1123C22.155 12.1435 22.1363 12.1717 22.1126 12.1955C22.0888 12.2192 22.0605 12.2379 22.0294 12.2505C21.9983 12.2631 21.9649 12.2693 21.9314 12.2687C21.8978 12.2681 21.8647 12.2607 21.834 12.2471C21.8034 12.2334 21.7758 12.2137 21.7529 12.1891L21.7469 12.1827L21.7406 12.1764L13.0506 3.48644L13.0504 3.48622C12.816 3.25213 12.4983 3.12065 12.1671 3.12065C11.8358 3.12065 11.5181 3.25213 11.2837 3.48622Z" fill="white" stroke="white"/>
<path d="M12.167 5.43199L20.326 13.591C20.356 13.621 20.386 13.649 20.417 13.677V19.875C20.417 20.91 19.577 21.75 18.542 21.75H15.167C14.9681 21.75 14.7773 21.671 14.6367 21.5303C14.496 21.3897 14.417 21.1989 14.417 21V16.5C14.417 16.3011 14.338 16.1103 14.1973 15.9697C14.0567 15.829 13.8659 15.75 13.667 15.75H10.667C10.4681 15.75 10.2773 15.829 10.1367 15.9697C9.99601 16.1103 9.91699 16.3011 9.91699 16.5V21C9.91699 21.1989 9.83797 21.3897 9.69732 21.5303C9.55667 21.671 9.3659 21.75 9.16699 21.75H5.79199C5.29471 21.75 4.8178 21.5524 4.46617 21.2008C4.11454 20.8492 3.91699 20.3723 3.91699 19.875V13.677C3.9481 13.6492 3.97845 13.6205 4.00799 13.591L12.167 5.42999V5.43199Z" fill="white"/>
</svg>
