<svg width="25" height="24" viewBox="0 0 25 24" fill="none" xmlns="http://www.w3.org/2000/svg">
<path d="M16.834 5.91152V5.455V5.25C16.834 4.58696 16.5706 3.95107 16.1018 3.48223C15.6329 3.01339 14.997 2.75 14.334 2.75H11.334C10.6709 2.75 10.0351 3.01339 9.56622 3.48223C9.09738 3.95107 8.83398 4.58696 8.83398 5.25V5.455V5.91136L8.37952 5.95292C7.46136 6.03689 6.54579 6.14713 5.63394 6.2835L5.63379 6.28352C4.43755 6.46205 3.58398 7.50644 3.58398 8.706V11.739C3.58398 12.7544 4.19822 13.6905 5.17775 14.0165C7.58451 14.8168 10.1583 15.25 12.834 15.25H12.8345C15.436 15.2526 18.021 14.8361 20.4901 14.0166L16.834 5.91152ZM16.834 5.91152L17.2886 5.95294M16.834 5.91152L17.2886 5.95294M17.2886 5.95294C18.2118 6.03704 19.1263 6.14788 20.0341 6.28351M17.2886 5.95294L20.0341 6.28351M20.0341 6.28351C21.2308 6.46306 22.084 7.50681 22.084 8.706M20.0341 6.28351L22.084 8.706M22.084 8.706V11.739M22.084 8.706V11.739M22.084 11.739C22.084 12.7543 21.4699 13.6904 20.4905 14.0165L22.084 11.739ZM15.8037 5.83908L16.334 5.87129V5.34V5.25C16.334 4.71957 16.1233 4.21086 15.7482 3.83579C15.3731 3.46071 14.8644 3.25 14.334 3.25H11.334C10.8036 3.25 10.2948 3.46071 9.91977 3.83579C9.5447 4.21086 9.33398 4.71957 9.33398 5.25V5.34V5.87129L9.86429 5.83908C11.8423 5.71895 13.8257 5.71895 15.8037 5.83908ZM12.834 14C13.1655 14 13.4834 13.8683 13.7179 13.6339C13.9523 13.3995 14.084 13.0815 14.084 12.75C14.084 12.4185 13.9523 12.1005 13.7179 11.8661C13.4834 11.6317 13.1655 11.5 12.834 11.5C12.5025 11.5 12.1845 11.6317 11.9501 11.8661C11.7157 12.1005 11.584 12.4185 11.584 12.75C11.584 13.0815 11.7157 13.3995 11.9501 13.6339C12.1845 13.8683 12.5025 14 12.834 14Z" fill="white" stroke="white"/>
<path d="M3.83398 18.4V15.604C4.0618 15.7287 4.30044 15.8324 4.54698 15.914C7.21967 16.8014 10.0178 17.2525 12.834 17.25C15.726 17.25 18.514 16.782 21.121 15.915C21.373 15.831 21.611 15.726 21.834 15.604V18.4C21.834 19.852 20.787 21.128 19.311 21.323C17.191 21.605 15.029 21.75 12.834 21.75C10.6679 21.7504 8.50423 21.6078 6.35698 21.323C4.88098 21.128 3.83398 19.852 3.83398 18.4Z" fill="white"/>
</svg>
