<svg width="90" height="90" viewBox="0 0 90 90" fill="none" xmlns="http://www.w3.org/2000/svg">
<g clip-path="url(#clip0_305_198)">
<path d="M69.9042 58.7499C70.3008 58.0615 70.5473 57.2858 70.5473 56.5893V32.4106C70.5473 31.714 70.3011 30.9385 69.9044 30.2501L45.2737 44.5L69.9042 58.7499Z" fill="#00599C"/>
<path d="M47.4623 72.4774L68.3584 60.3882C68.9604 60.0399 69.5075 59.4385 69.9041 58.7499L45.2736 44.5L20.6431 58.7501C21.0397 59.4385 21.5869 60.0401 22.1887 60.3882L43.0849 72.4774C44.2886 73.174 46.2586 73.174 47.4623 72.4774Z" fill="#004482"/>
<path d="M69.9043 30.2499C69.5075 29.5613 68.9602 28.9599 68.3584 28.6117L47.4623 16.5224C46.2586 15.8259 44.2886 15.8259 43.0849 16.5224L22.1887 28.6117C20.9848 29.3081 20 31.0176 20 32.4106V56.5893C20 57.2858 20.2463 58.0615 20.6431 58.7499L45.2736 44.5L69.9043 30.2499Z" fill="#659AD2"/>
<path d="M45.2736 61.384C35.983 61.384 28.4246 53.8099 28.4246 44.5C28.4246 35.1901 35.983 27.616 45.2736 27.616C51.2686 27.616 56.8597 30.8488 59.8647 36.0527L52.5729 40.281C51.0689 37.6762 48.2718 36.058 45.2736 36.058C40.6282 36.058 36.8491 39.845 36.8491 44.5C36.8491 49.1549 40.6282 52.942 45.2736 52.942C48.2721 52.942 51.0692 51.3238 52.5734 48.7185L59.8652 52.9466C56.8602 58.151 51.2689 61.384 45.2736 61.384Z" fill="white"/>
<path d="M62.1227 43.5619H60.2505V41.686H58.3786V43.5619H56.5063V45.4379H58.3786V47.314H60.2505V45.4379H62.1227V43.5619Z" fill="white"/>
<path d="M69.143 43.5619H67.2707V41.686H65.3988V43.5619H63.5266V45.4379H65.3988V47.314H67.2707V45.4379H69.143V43.5619Z" fill="white"/>
</g>
<defs>
<clipPath id="clip0_305_198">
<rect width="50.5472" height="57" fill="white" transform="translate(20 16)"/>
</clipPath>
</defs>
</svg>
