<svg width="90" height="90" viewBox="0 0 90 90" fill="none" xmlns="http://www.w3.org/2000/svg">
<rect width="90" height="90" rx="20" fill="white"/>
<mask id="mask0_303_2" style="mask-type:luminance" maskUnits="userSpaceOnUse" x="20" y="16" width="47" height="57">
<path d="M66.0302 42.3022L50.6868 57.6511L66.0302 73H48.4973L33.1484 57.6511L48.4973 42.3022H66.0302ZM48.4973 16L20 44.4973L28.7692 53.2665L66.0302 16H48.4973V16Z" fill="white"/>
</mask>
<g mask="url(#mask0_303_2)">
<path d="M33.1538 57.6511L41.9176 66.4203L66.0302 42.3022H48.4972L33.1538 57.6511Z" fill="#39CEFD"/>
</g>
<mask id="mask1_303_2" style="mask-type:luminance" maskUnits="userSpaceOnUse" x="20" y="16" width="47" height="57">
<path d="M66.0302 42.3022L50.6868 57.6511L66.0302 73H48.4973L33.1484 57.6511L48.4973 42.3022H66.0302ZM48.4973 16L20 44.4973L28.7692 53.2665L66.0302 16H48.4973V16Z" fill="white"/>
</mask>
<g mask="url(#mask1_303_2)">
<path d="M48.4973 16H66.0302L28.7692 53.2665L20 44.4973L48.4973 16Z" fill="#39CEFD"/>
</g>
<mask id="mask2_303_2" style="mask-type:luminance" maskUnits="userSpaceOnUse" x="20" y="16" width="47" height="57">
<path d="M66.0302 42.3022L50.6868 57.6511L66.0302 73H48.4973L33.1484 57.6511L48.4973 42.3022H66.0302ZM48.4973 16L20 44.4973L28.7692 53.2665L66.0302 16H48.4973V16Z" fill="white"/>
</mask>
<g mask="url(#mask2_303_2)">
<path d="M41.9176 66.4203L48.4973 72.9945H66.0302L50.6868 57.6511L41.9176 66.4203Z" fill="#03569B"/>
</g>
<mask id="mask3_303_2" style="mask-type:luminance" maskUnits="userSpaceOnUse" x="20" y="16" width="47" height="57">
<path d="M66.0302 42.3022L50.6868 57.6511L66.0302 73H48.4973L33.1484 57.6511L48.4973 42.3022H66.0302ZM48.4973 16L20 44.4973L28.7692 53.2665L66.0302 16H48.4973V16Z" fill="white"/>
</mask>
<g mask="url(#mask3_303_2)">
<path d="M54.9233 61.915L50.6868 57.6511L41.9176 66.4203L54.9233 61.915Z" fill="url(#paint0_linear_303_2)"/>
</g>
<mask id="mask4_303_2" style="mask-type:luminance" maskUnits="userSpaceOnUse" x="20" y="16" width="47" height="57">
<path d="M66.0302 42.3022L50.6868 57.6511L66.0302 73H48.4973L33.1484 57.6511L48.4973 42.3022H66.0302ZM48.4973 16L20 44.4973L28.7692 53.2665L66.0302 16H48.4973V16Z" fill="white"/>
</mask>
<g mask="url(#mask4_303_2)">
<path d="M33.153 57.6481L41.9224 48.8786L50.6924 57.6481L41.9224 66.4176L33.153 57.6481Z" fill="#16B9FD"/>
</g>
<path d="M66.0302 42.3022L50.6868 57.6511L66.0302 73H48.4973L33.1484 57.6511L48.4973 42.3022H66.0302ZM48.4973 16L20 44.4973L28.7692 53.2665L66.0302 16H48.4973Z" fill="url(#paint1_radial_303_2)"/>
<defs>
<linearGradient id="paint0_linear_303_2" x1="44.4768" y1="68.1127" x2="51.0079" y2="61.5816" gradientUnits="userSpaceOnUse">
<stop stop-color="#1A237E" stop-opacity="0.4"/>
<stop offset="1" stop-color="#1A237E" stop-opacity="0"/>
</linearGradient>
<radialGradient id="paint1_radial_303_2" cx="0" cy="0" r="1" gradientUnits="userSpaceOnUse" gradientTransform="translate(21.2931 19.885) scale(69.7325)">
<stop stop-color="white" stop-opacity="0.1"/>
<stop offset="1" stop-color="white" stop-opacity="0"/>
</radialGradient>
</defs>
</svg>
