<svg width="90" height="90" viewBox="0 0 90 90" fill="none" xmlns="http://www.w3.org/2000/svg">
<rect width="90" height="90" rx="20" fill="white"/>
<path d="M44.2893 17.0005C42.0117 17.0111 39.8366 17.2055 37.9227 17.5446C32.2848 18.5419 31.2611 20.6293 31.2611 24.4788V29.5628H44.5844V31.2575H31.2611H26.2611C22.389 31.2575 18.9984 33.5877 17.9379 38.0207C16.7146 43.1018 16.6604 46.2725 17.9379 51.5781C18.885 55.5273 21.1467 58.3412 25.0188 58.3412H29.5996V52.2466C29.5996 47.8436 33.4045 43.9598 37.9227 43.9598H51.2304C54.9348 43.9598 57.892 40.9059 57.892 37.1811V24.4788C57.892 20.8637 54.846 18.148 51.2304 17.5446C48.9417 17.1632 46.567 16.9899 44.2893 17.0005ZM37.0842 21.0894C38.4604 21.0894 39.5843 22.2331 39.5843 23.6392C39.5843 25.0404 38.4604 26.1735 37.0842 26.1735C35.7031 26.1735 34.5842 25.0404 34.5842 23.6392C34.5842 22.2331 35.7031 21.0894 37.0842 21.0894Z" fill="url(#paint0_linear_305_187)"/>
<path d="M59.5537 31.2575V37.1811C59.5537 41.7736 55.6649 45.6389 51.2305 45.6389H37.9228C34.2776 45.6389 31.2612 48.7626 31.2612 52.4176V65.1199C31.2612 68.7351 34.401 70.8615 37.9228 71.8986C42.1402 73.1402 46.1845 73.3646 51.2305 71.8986C54.5847 70.9263 57.8921 68.9694 57.8921 65.1199V60.0359H44.5844V58.3412H57.8921H64.5538C68.4259 58.3412 69.8688 55.637 71.2154 51.5781C72.6064 47.3995 72.5472 43.381 71.2154 38.0207C70.2584 34.1612 68.4308 31.2575 64.5538 31.2575H59.5537ZM52.0691 63.4252C53.4502 63.4252 54.5691 64.5583 54.5691 65.9595C54.5691 67.3657 53.4502 68.5093 52.0691 68.5093C50.6929 68.5093 49.569 67.3657 49.569 65.9595C49.569 64.5583 50.6929 63.4252 52.0691 63.4252Z" fill="url(#paint1_linear_305_187)"/>
<defs>
<linearGradient id="paint0_linear_305_187" x1="17" y1="17" x2="47.7539" y2="43.1741" gradientUnits="userSpaceOnUse">
<stop stop-color="#5A9FD4"/>
<stop offset="1" stop-color="#306998"/>
</linearGradient>
<linearGradient id="paint1_linear_305_187" x1="51.7489" y1="65.5321" x2="40.7089" y2="50.0809" gradientUnits="userSpaceOnUse">
<stop stop-color="#FFD43B"/>
<stop offset="1" stop-color="#FFE873"/>
</linearGradient>
</defs>
</svg>
