<svg width="90" height="90" viewBox="0 0 90 90" fill="none" xmlns="http://www.w3.org/2000/svg">
<path d="M25.2144 61.8794L32.1282 17.6388C32.2127 17.0963 32.6346 16.6685 33.176 16.5766C33.7174 16.4846 34.2569 16.7492 34.5157 17.2334L41.6658 30.5694L44.5158 25.1431C44.7365 24.7235 45.1716 24.4608 45.6458 24.4608C46.1199 24.4608 46.555 24.7235 46.7757 25.1431L66.0712 61.8794L25.2144 61.8794Z" fill="#FFA000"/>
<path d="M49.0998 44.646L41.6625 30.5631L25.2144 61.8794L49.0998 44.646Z" fill="#F57C00"/>
<path d="M66.0714 61.8795L60.776 29.1108C60.696 28.6402 60.3602 28.2536 59.9054 28.1079C59.4506 27.9622 58.9528 28.0835 58.6151 28.4208L25.2144 61.879L43.6958 72.2433C44.8564 72.8913 46.2698 72.8913 47.4304 72.2433L66.0714 61.879V61.8795Z" fill="#FFCA28"/>
<path d="M60.7758 29.1107C60.6958 28.6402 60.36 28.2536 59.9052 28.1079C59.4504 27.9622 58.9527 28.0835 58.6149 28.4208L51.9856 35.0669L46.7727 25.1429C46.552 24.7233 46.1169 24.4606 45.6427 24.4606C45.1686 24.4606 44.7335 24.7233 44.5128 25.1429L41.6628 30.5692L34.5123 17.2334C34.2531 16.7491 33.7129 16.4849 33.1709 16.5776C32.6289 16.6702 32.2083 17.099 32.1248 17.642L25.2142 61.8794H25.1919L25.2142 61.905L25.3961 61.9944L58.6052 28.7468C58.9428 28.4076 59.4418 28.2857 59.8978 28.431C60.3538 28.5763 60.6903 28.9643 60.7695 29.4363L66.0202 61.9113L66.0713 61.8794L60.7758 29.1107ZM25.2748 61.8188L32.128 17.9549C32.2115 17.4119 32.633 16.9831 33.1746 16.8904C33.7161 16.7978 34.2563 17.0618 34.516 17.5463L41.6656 30.8823L44.5156 25.4559C44.7363 25.0364 45.1715 24.7736 45.6456 24.7736C46.1197 24.7736 46.5548 25.0364 46.7756 25.4559L51.8827 35.1691L25.2748 61.8188Z" fill="white" fill-opacity="0.2"/>
<path opacity="0.2" d="M47.4304 71.9309C46.2699 72.5789 44.8564 72.5789 43.6959 71.9309L25.2591 61.5954L25.2144 61.8796L43.6958 72.2407C44.8564 72.8887 46.2698 72.8887 47.4304 72.2407L66.0714 61.8796L66.0236 61.5859L47.4304 71.9309Z" fill="#A52714"/>
<path d="M60.7229 29.1175C60.6432 28.6471 60.3085 28.2604 59.8553 28.1155C59.4022 27.9707 58.9061 28.0911 58.5695 28.4284L51.9631 35.0711L46.7688 25.1516C46.5488 24.7322 46.1152 24.4696 45.6428 24.4696C45.1704 24.4696 44.7368 24.7322 44.5168 25.1516L41.6764 30.5756L34.5514 17.2454C34.2929 16.7612 33.7547 16.4971 33.2151 16.5898C32.6754 16.6825 32.2553 17.111 32.1721 17.6538L25.2856 61.8719L43.7025 72.2285C44.859 72.8762 46.2675 72.8762 47.4241 72.2285L65.9999 61.8719L60.7229 29.1174V29.1175Z" fill="url(#paint0_linear_305_159)"/>
<defs>
<linearGradient id="paint0_linear_305_159" x1="-116.807" y1="972.122" x2="4963.97" y2="3652.17" gradientUnits="userSpaceOnUse">
<stop stop-color="white" stop-opacity="0.1"/>
<stop offset="0.14" stop-color="white" stop-opacity="0.08"/>
<stop offset="0.61" stop-color="white" stop-opacity="0.02"/>
<stop offset="1" stop-color="white" stop-opacity="0"/>
</linearGradient>
</defs>
</svg>
