<svg width="90" height="90" viewBox="0 0 90 90" fill="none" xmlns="http://www.w3.org/2000/svg">
<path d="M50.3643 22.353C47.9581 19.5147 45.8862 16.632 45.4629 16.0333C45.4183 15.9889 45.3515 15.9889 45.3069 16.0333C44.8836 16.632 42.8116 19.5147 40.4055 22.353C19.7527 48.5413 43.6583 66.2146 43.6583 66.2146L43.8588 66.3476C44.037 69.0752 44.4826 73 44.4826 73H45.3738H46.2649C46.2649 73 46.7105 69.0973 46.8888 66.3476L47.0892 66.1925C47.1115 66.1925 71.0171 48.5413 50.3643 22.353ZM45.3738 65.8153C45.3738 65.8153 44.3044 64.9062 44.0147 64.4405V64.3963L45.3069 35.8796C45.3069 35.7909 45.4406 35.7909 45.4406 35.8796L46.7328 64.3963V64.4405C46.4431 64.9062 45.3738 65.8153 45.3738 65.8153Z" fill="#00684A"/>
</svg>
