<svg width="90" height="90" viewBox="0 0 90 90" fill="none" xmlns="http://www.w3.org/2000/svg">
<rect width="90" height="90" rx="20" fill="#23272F"/>
<path d="M44.5 51.0036C47.7421 51.0036 50.3704 48.3861 50.3704 45.1572C50.3704 41.9283 47.7421 39.3107 44.5 39.3107C41.2578 39.3107 38.6295 41.9283 38.6295 45.1572C38.6295 48.3861 41.2578 51.0036 44.5 51.0036Z" fill="#61DAFB"/>
<path d="M44.5 57.1353C61.897 57.1353 76 51.7725 76 45.1572C76 38.5419 61.897 33.1792 44.5 33.1792C27.103 33.1792 13 38.5419 13 45.1572C13 51.7725 27.103 57.1353 44.5 57.1353Z" stroke="#61DAFB"/>
<path d="M34.084 51.1462C42.7825 66.1508 54.4974 75.633 60.25 72.3254C66.0025 69.0177 63.6144 54.1727 54.9159 39.1682C46.2174 24.1636 34.5025 14.6814 28.75 17.989C22.9974 21.2967 25.3856 36.1417 34.084 51.1462Z" stroke="#61DAFB"/>
<path d="M34.084 39.1682C25.3856 54.1728 22.9974 69.0178 28.75 72.3254C34.5025 75.6331 46.2174 66.1508 54.9159 51.1463C63.6144 36.1417 66.0025 21.2967 60.25 17.9891C54.4974 14.6814 42.7825 24.1636 34.084 39.1682Z" stroke="#61DAFB"/>
</svg>
