<svg width="90" height="90" viewBox="0 0 90 90" fill="none" xmlns="http://www.w3.org/2000/svg">
<rect width="90" height="90" rx="20" fill="white"/>
<path fill-rule="evenodd" clip-rule="evenodd" d="M18 19.5035C18 21.4374 19.5793 23.0059 21.5265 23.0059H50.7515C54.0823 23.0059 56.8253 24.0278 58.9804 26.0717C61.1354 28.1156 62.2129 30.7426 62.2129 33.954C62.2129 36.9221 61.1354 39.3547 58.9793 41.252C56.8253 43.1015 54.0823 44.0257 50.7515 44.0257H38.0503C36.102 44.0257 34.5227 45.5932 34.5227 47.5291C34.5227 49.4631 36.102 51.0316 38.0503 51.0316H52.0753L64.7116 71.175C65.4952 72.3923 66.597 73 68.0172 73C69.5853 73 70.6872 72.3923 71.3237 71.175C71.9603 69.9108 71.8377 68.5723 70.9568 67.1616L59.7153 49.2066C62.7522 47.8447 65.1526 45.8497 66.9153 43.2226C68.6791 40.5466 69.561 37.4574 69.561 33.954C69.561 30.4017 68.7521 27.288 67.1363 24.6121C65.5692 21.9351 63.3655 19.8434 60.5242 18.335C57.6829 16.7776 54.426 16 50.7515 16H21.5275C19.5793 16 18 17.5675 18 19.5035Z" fill="black"/>
</svg>
