<svg width="25" height="24" viewBox="0 0 25 24" fill="none" xmlns="http://www.w3.org/2000/svg">
<g clip-path="url(#clip0_1333_1565)">
<path d="M23.9289 8.73458V17.5179C23.9289 18.2757 23.6279 19.0024 23.092 19.5382C22.5562 20.0741 21.8295 20.3751 21.0717 20.3751H3.92862C3.17084 20.3751 2.44411 20.0741 1.90829 19.5382C1.37246 19.0024 1.07144 18.2757 1.07144 17.5179V8.73458L10.4041 14.4766L10.4041 14.4766C11.0345 14.8644 11.7601 15.0697 12.5002 15.0697C13.2402 15.0697 13.9658 14.8644 14.5962 14.4766L14.5962 14.4766L23.9289 8.73458Z" fill="white" stroke="white" stroke-width="1.14287"/>
<path d="M24.5003 5.69839V5.51782C24.5003 4.60849 24.1391 3.73641 23.4961 3.09342C22.8531 2.45043 21.981 2.0892 21.0717 2.0892H3.92862C3.01929 2.0892 2.14721 2.45043 1.50422 3.09342C0.861228 3.73641 0.5 4.60849 0.5 5.51782V5.69839L11.6019 12.5305C11.872 12.6967 12.183 12.7847 12.5002 12.7847C12.8173 12.7847 13.1283 12.6967 13.3985 12.5305L24.5003 5.69839Z" fill="white"/>
</g>
<defs>
<clipPath id="clip0_1333_1565">
<rect width="24" height="24" fill="white" transform="translate(0.5)"/>
</clipPath>
</defs>
</svg>
